PathFileType	4	(X/Y/Z)	/Users/niels/Desktop/University/Third Semester/Perception and Action/Exam/Gymnastics Motion Tracking/Code for Gym Tracking/Analyzed Data/Backflip/id1_1_baseline_Sports2D/id1_1_baseline_Sports2D_px_person00.trc
DataRate	CameraRate	NumFrames	NumMarkers	Units	OrigDataRate	OrigDataStartFrame	OrigNumFrames
60.02098635886674	60.02098635886674	10	22	m	60.02098635886674	0	287
Frame#	Time	Hip			RHip			RKnee			RAnkle			RBigToe			RSmallToe			RHeel			LHip			LKnee			LAnkle			LBigToe			LSmallToe			LHeel			Neck			Head			Nose			RShoulder			RElbow			RWrist			LShoulder			LElbow			LWrist		
		X1	Y1	Z1	X2	Y2	Z2	X3	Y3	Z3	X4	Y4	Z4	X5	Y5	Z5	X6	Y6	Z6	X7	Y7	Z7	X8	Y8	Z8	X9	Y9	Z9	X10	Y10	Z10	X11	Y11	Z11	X12	Y12	Z12	X13	Y13	Z13	X14	Y14	Z14	X15	Y15	Z15	X16	Y16	Z16	X17	Y17	Z17	X18	Y18	Z18	X19	Y19	Z19	X20	Y20	Z20	X21	Y21	Z21	X22	Y22	Z22
0	0.0	1.063977095820463	-0.5721931914268351	0.0	1.0578929706577618	-0.5691170811625961	0.0	1.051767832458242	-0.6716062206242968	0.0	1.0334416423492245	-0.7572301805577885	0.0	1.067148529214397	-0.7649108455850708	0.0	1.0579119341052252	-0.7679619023022736	0.0	1.0288683202465565	-0.7663997334861974	0.0	1.0670001124381878	-0.5706312830312362	0.0	1.0578676556386406	-0.6700476097853759	0.0	1.039571322629641	-0.7541726967635647	0.0	1.0716111030415805	-0.7618163279920005	0.0	1.06248105583951	-0.7603079051709226	0.0	1.0273461611800274	-0.7618133499535839	0.0	1.062446064473012	-0.4423681212863662	0.0	1.0762584811624798	-0.3825526599831743	0.0	1.0853855115512199	-0.41164631708815824	0.0	1.0563625803357684	-0.44841038496098673	0.0	1.0931073515930174	-0.3872321667543495	0.0	1.1054209831258144	-0.3306946817462468	0.0	1.0685166165736284	-0.44995675158637166	0.0	1.0960927983532978	-0.39346260006386213	0.0	1.1006635652785197	-0.33493374944195653	0.0
1	0.016660839160839158	1.0638100694118655	-0.5722253201753371	0.0	1.0580332405945412	-0.5693309284365581	0.0	1.05187535891738	-0.6715082651974569	0.0	1.0334826461462068	-0.7575397424516651	0.0	1.066368818436518	-0.7648955209519424	0.0	1.0576033944206493	-0.7680856150472821	0.0	1.0290933688104427	-0.766703172531236	0.0	1.0663433763513896	-0.5705846218047648	0.0	1.0577103686272165	-0.6701312408760851	0.0	1.039263692664869	-0.7545070431193317	0.0	1.0706730692108468	-0.7623451634583264	0.0	1.0619644471989336	-0.7606364409772142	0.0	1.027086825519185	-0.7622832986771255	0.0	1.0622379592209068	-0.4426760329197748	0.0	1.07569387016836	-0.38323850892824635	0.0	1.0853757300056648	-0.4121891090474065	0.0	1.0564080897045123	-0.4487184594052115	0.0	1.0923743142209894	-0.3871691842944095	0.0	1.103547001594788	-0.3309776088809771	0.0	1.0670826787811931	-0.45031590802215826	0.0	1.094413607951564	-0.39646514265163385	0.0	1.0987398787014526	-0.34442044589898874	0.0
2	0.033321678321678316	1.06366544085638	-0.5722610002120775	0.0	1.0581835241802975	-0.5695641424029343	0.0	1.0519881859642612	-0.6714275701703066	0.0	1.033498010164754	-0.7578317350360207	0.0	1.0656310992521583	-0.7648906185112775	0.0	1.0573242321549836	-0.7682034222574713	0.0	1.029286017383356	-0.7669851760144354	0.0	1.0657204997525964	-0.570569701626667	0.0	1.0575575566831104	-0.6702188260493421	0.0	1.0389535830115715	-0.7548270815156514	0.0	1.0698015050133864	-0.7628546371739134	0.0	1.0614848433496646	-0.7609562882333755	0.0	1.0268087296799782	-0.762739423704634	0.0	1.0620529227095896	-0.4429268037980809	0.0	1.075109091954358	-0.38393481938228224	0.0	1.085384635256711	-0.4127307506073453	0.0	1.0564587113873949	-0.44901787323204917	0.0	1.0916421689808211	-0.38712446021953056	0.0	1.101706193039096	-0.3312507041903463	0.0	1.065730384118676	-0.4506808452019437	0.0	1.0927604781379057	-0.3996144945674006	0.0	1.09684521458347	-0.35497682611790765	0.0
3	0.049982517482517475	1.0635577444219722	-0.5723018780341428	0.0	1.0583494393814274	-0.5698304621461032	0.0	1.052111961179243	-0.671375463746049	0.0	1.033472650654824	-0.7580917299742839	0.0	1.0649791420905788	-0.7649008987775028	0.0	1.0570981938413604	-0.7683075910435653	0.0	1.0294277295363752	-0.7672251034288607	0.0	1.0651520281811113	-0.5706108390779556	0.0	1.057414712154479	-0.6703105067660541	0.0	1.0386435306156108	-0.7551186661393348	0.0	1.0690519879678	-0.7633235875301765	0.0	1.061082141608904	-0.7612562474319176	0.0	1.0265046499612092	-0.7631628697204493	0.0	1.0619063644389568	-0.4430840774854089	0.0	1.074490002167567	-0.38464226107996374	0.0	1.0854286788594194	-0.41326513449897995	0.0	1.056513189324877	-0.4493104801378226	0.0	1.0909104277455288	-0.3871069629614537	0.0	1.0999336995774411	-0.33150119015319446	0.0	1.0645220184314228	-0.45106187682336607	0.0	1.0911526880295532	-0.40322598705111495	0.0	1.0950041285732752	-0.367538199943156	0.0
4	0.06664335664335663	1.0634922148008108	-0.5723502134392282	0.0	1.0585318765821166	-0.5701401230746564	0.0	1.052250462243315	-0.6713578465764132	0.0	1.0333994566739868	-0.7583142128771672	0.0	1.0644372852687032	-0.7649283492808248	0.0	1.0569372703559463	-0.768395254677614	0.0	1.0295113530581108	-0.7674174778266565	0.0	1.0646517689633184	-0.5707292926234877	0.0	1.057284956256739	-0.670408284607643	0.0	1.0383367870146616	-0.7553756180025479	0.0	1.0684632816705106	-0.7637399085347639	0.0	1.0607843534150794	-0.761527956716904	0.0	1.0261734160196643	-0.7635411234725751	0.0	1.061805013499811	-0.4431258288806811	0.0	1.0738295906651585	-0.38536213049619406	0.0	1.0855185427266152	-0.4137835889849057	0.0	1.0565654407795697	-0.4495986386524157	0.0	1.0901810289860785	-0.3871195281570749	0.0	1.098258103039548	-0.3317133643541901	0.0	1.0634981230305114	-0.4514618692240656	0.0	1.0896053862503763	-0.40752035056529357	0.0	1.0932444790152502	-0.38283887471399064	0.0
5	0.08330419580419579	1.0634647029826312	-0.572408717553969	0.0	1.0587297363969717	-0.5704972758597456	0.0	1.052403661734996	-0.671377715090336	0.0	1.0332809161214576	-0.7585033065196757	0.0	1.0640156785595534	-0.7649727595675879	0.0	1.0568472020451907	-0.7684682391178829	0.0	1.0295399403878416	-0.7675685309731116	0.0	1.0642255539474512	-0.5709371296601985	0.0	1.0571680897717401	-0.6705151810139065	0.0	1.038040011655437	-0.7555999922608336	0.0	1.068057901650657	-0.7640975674150635	0.0	1.0606053687455836	-0.7617682989141202	0.0	1.0258220250097858	-0.7638683462248874	0.0	1.0617471389051365	-0.4430457781211457	0.0	1.073124989000386	-0.38609321763775456	0.0	1.085655686504707	-0.41427488644113303	0.0	1.056612209584873	-0.4498796445688629	0.0	1.0894590794234598	-0.3871601479049664	0.0	1.0967002646263813	-0.33187142754459537	0.0	1.0626728088919457	-0.45187369583711773	0.0	1.0881312943245864	-0.41258909717604175	0.0	1.091595798991557	-0.4012924261665235	0.0
6	0.09996503496503495	1.0634643306414557	-0.5724790025957657	0.0	1.0589389192463383	-0.5708966888292677	0.0	1.0525679113339708	-0.6714352353544989	0.0	1.033127770944956	-0.7586690632812574	0.0	1.0637127213110327	-0.765032142773015	0.0	1.0568268355635146	-0.7685291617026536	0.0	1.0295217501580374	-0.7676883411787904	0.0	1.0638704736300753	-0.5712319508270483	0.0	1.0570617055485243	-0.6706331753003836	0.0	1.0377614804902022	-0.7557979169881359	0.0	1.0678403075860767	-0.7643941510370844	0.0	1.0605419450211175	-0.7619782436615279	0.0	1.0254636399051833	-0.7641442503419963	0.0	1.0617254856428782	-0.44285274823289483	0.0	1.072380720643025	-0.38682980025658875	0.0	1.0858333378444116	-0.4147302844192969	0.0	1.0566542432120494	-0.45014573224409504	0.0	1.088751513841845	-0.3872231813108993	0.0	1.0952729105878156	-0.33196437538584755	0.0	1.0620371219331015	-0.45228402915715016	0.0	1.0867445465970182	-0.4183539664422478	0.0	1.090086603337591	-0.4228471037626128	0.0
7	0.11662587412587411	1.0634783076310617	-0.572560083610165	0.0	1.059147939481202	-0.5713231144624166	0.0	1.052737623292501	-0.6715258014420977	0.0	1.0329559819698306	-0.7588206843929292	0.0	1.06351307386593	-0.7651015093103973	0.0	1.056863603180106	-0.768579052651992	0.0	1.0294666119826315	-0.767785689381147	0.0	1.0635797661945743	-0.5715967619814137	0.0	1.0569657007842934	-0.6707613391175368	0.0	1.0375080244059485	-0.7559733587106777	0.0	1.0677958168492014	-0.7646294289002044	0.0	1.0605769739493975	-0.76215763272122	0.0	1.0251137120976048	-0.7643719805502296	0.0	1.0617313541093985	-0.4425684993488578	0.0	1.0716127489256995	-0.3875622836732063	0.0	1.0860393602354423	-0.4151474413275863	0.0	1.056690422392241	-0.45038922634682155	0.0	1.0880640330512796	-0.38730010035900825	0.0	1.0939802324751835	-0.33199167900376886	0.0	1.0615717215148817	-0.4526782375985206	0.0	1.08546502888229	-0.4245222247538327	0.0	1.0887417700084407	-0.44680965568446745	0.0
8	0.13328671328671327	1.063496624664404	-0.5726511566690432	0.0	1.0593385431559637	-0.5717576380286123	0.0	1.05290519195835	-0.6716407529604161	0.0	1.032781611990571	-0.7589627467272559	0.0	1.063388606362278	-0.7651732311328376	0.0	1.056934465994034	-0.7686187042349544	0.0	1.0293842946018255	-0.7678668224038476	0.0	1.0633500288879203	-0.5720073676264135	0.0	1.0568849323348866	-0.6708978741828534	0.0	1.0372832284416822	-0.7561269213320025	0.0	1.067893657710899	-0.7648062400586886	0.0	1.0606876884897256	-0.7623039868277497	0.0	1.0247858016556017	-0.7645562708400552	0.0	1.0617565385424765	-0.4422220381222876	0.0	1.0708450190914385	-0.3882789545791614	0.0	1.0862576103759702	-0.4155295778302646	0.0	1.0567150965587984	-0.4506061445795216	0.0	1.0874005540342893	-0.38738113533471447	0.0	1.0928177909992172	-0.33196364382958693	0.0	1.0612578505516177	-0.4530416663338637	0.0	1.0843186163211838	-0.43053914620056793	0.0	1.0875811302681444	-0.4717821372694333	0.0
9	0.14994755244755242	1.0635147645722693	-0.5727560983449579	0.0	1.059494263215431	-0.5721866194475679	0.0	1.053061010399326	-0.671771445353098	0.0	1.0326169879859957	-0.7590961017349082	0.0	1.0633082312014348	-0.7652379311189424	0.0	1.0570152225513585	-0.7686478192249383	0.0	1.0292833824061205	-0.7679340861205929	0.0	1.0631810627109552	-0.5724419493106963	0.0	1.0568260265566676	-0.6710427892401541	0.0	1.0370874629311129	-0.7562584243283144	0.0	1.0680953152493415	-0.7649296723253164	0.0	1.0608520980953702	-0.7624151598171426	0.0	1.0244893919579303	-0.7647007436130449	0.0	1.0617941392907577	-0.44184384134494503	0.0	1.0701033242819875	-0.38896697919635204	0.0	1.0864710912160502	-0.4158821749893857	0.0	1.0567224083152442	-0.45079716871552705	0.0	1.0867644338792983	-0.3874578889895234	0.0	1.0917740356388008	-0.3318957475179918	0.0	1.0610779818169014	-0.4533621378913265	0.0	1.0833294975560264	-0.435612435309927	0.0	1.0866164196852757	-0.4960068380247641	0.0
